[Header]
FileType HTR
DataType HTRS
FileVersion 1
NumSegments 64
NumFrames 3
DataFrameRate 24
EulerRotationOrder ZYX
CalibrationUnits mm
RotationUnits Degrees
GlobalAxisofGravity Y
BoneLengthAxis Y
ScaleFactor 1.0
[SegmentNames&Hierarchy]
Hips	GLOBAL
Spine	Hips
Spine1	Spine
Spine2	Spine1
Neck	Spine2
Head	Neck
LeftEye	Head
RightEye	Head
LeftShoulder	Spine2
LeftArm	LeftShoulder
LeftForeArm	LeftArm
LeftHand	LeftForeArm
LeftHandThumb1	LeftHand
LeftHandThumb2	LeftHandThumb1
LeftHandThumb3	LeftHandThumb2
LeftHandThumb4	LeftHandThumb3
LeftHandIndex1	LeftHand
LeftHandIndex2	LeftHandIndex1
LeftHandIndex3	LeftHandIndex2
LeftHandIndex4	LeftHandIndex3
LeftHandMiddle1	LeftHand
LeftHandMiddle2	LeftHandMiddle1
LeftHandMiddle3	LeftHandMiddle2
LeftHandMiddle4	LeftHandMiddle3
LeftHandRing1	LeftHand
LeftHandRing2	LeftHandRing1
LeftHandRing3	LeftHandRing2
LeftHandRing4	LeftHandRing3
LeftHandPinky1	LeftHand
LeftHandPinky2	LeftHandPinky1
LeftHandPinky3	LeftHandPinky2
LeftHandPinky4	LeftHandPinky3
RightShoulder	Spine2
RightArm	RightShoulder
RightForeArm	RightArm
RightHand	RightForeArm
RightHandPinky1	RightHand
RightHandPinky2	RightHandPinky1
RightHandPinky3	RightHandPinky2
RightHandPinky4	RightHandPinky3
RightHandRing1	RightHand
RightHandRing2	RightHandRing1
RightHandRing3	RightHandRing2
RightHandRing4	RightHandRing3
RightHandMiddle1	RightHand
RightHandMiddle2	RightHandMiddle1
RightHandMiddle3	RightHandMiddle2
RightHandMiddle4	RightHandMiddle3
RightHandIndex1	RightHand
RightHandIndex2	RightHandIndex1
RightHandIndex3	RightHandIndex2
RightHandIndex4	RightHandIndex3
RightHandThumb1	RightHand
RightHandThumb2	RightHandThumb1
RightHandThumb3	RightHandThumb2
RightHandThumb4	RightHandThumb3
LeftUpLeg	Hips
LeftLeg	LeftUpLeg
LeftFoot	LeftLeg
LeftToeBase	LeftFoot
RightUpLeg	Hips
RightLeg	RightUpLeg
RightFoot	RightLeg
RightToeBase	RightFoot
[BasePosition]
Hips	0	0	0	0	0	0	1
Spine	0	0	0	0	0	0	1
Spine1	0	0	0	0	0	0	1
Spine2	0	0	0	0	0	0	1
Neck	0	0	0	0	0	0	1
Head	0	0	0	0	0	0	1
LeftEye	0	0	0	0	0	0	1
RightEye	0	0	0	0	0	0	1
LeftShoulder	0	0	0	0	0	0	1
LeftArm	0	0	0	0	0	0	1
LeftForeArm	0	0	0	0	0	0	1
LeftHand	0	0	0	0	0	0	1
LeftHandThumb1	0	0	0	0	0	0	1
LeftHandThumb2	0	0	0	0	0	0	1
LeftHandThumb3	0	0	0	0	0	0	1
LeftHandThumb4	0	0	0	0	0	0	1
LeftHandIndex1	0	0	0	0	0	0	1
LeftHandIndex2	0	0	0	0	0	0	1
LeftHandIndex3	0	0	0	0	0	0	1
LeftHandIndex4	0	0	0	0	0	0	1
LeftHandMiddle1	0	0	0	0	0	0	1
LeftHandMiddle2	0	0	0	0	0	0	1
LeftHandMiddle3	0	0	0	0	0	0	1
LeftHandMiddle4	0	0	0	0	0	0	1
LeftHandRing1	0	0	0	0	0	0	1
LeftHandRing2	0	0	0	0	0	0	1
LeftHandRing3	0	0	0	0	0	0	1
LeftHandRing4	0	0	0	0	0	0	1
LeftHandPinky1	0	0	0	0	0	0	1
LeftHandPinky2	0	0	0	0	0	0	1
LeftHandPinky3	0	0	0	0	0	0	1
LeftHandPinky4	0	0	0	0	0	0	1
RightShoulder	0	0	0	0	0	0	1
RightArm	0	0	0	0	0	0	1
RightForeArm	0	0	0	0	0	0	1
RightHand	0	0	0	0	0	0	1
RightHandPinky1	0	0	0	0	0	0	1
RightHandPinky2	0	0	0	0	0	0	1
RightHandPinky3	0	0	0	0	0	0	1
RightHandPinky4	0	0	0	0	0	0	1
RightHandRing1	0	0	0	0	0	0	1
RightHandRing2	0	0	0	0	0	0	1
RightHandRing3	0	0	0	0	0	0	1
RightHandRing4	0	0	0	0	0	0	1
RightHandMiddle1	0	0	0	0	0	0	1
RightHandMiddle2	0	0	0	0	0	0	1
RightHandMiddle3	0	0	0	0	0	0	1
RightHandMiddle4	0	0	0	0	0	0	1
RightHandIndex1	0	0	0	0	0	0	1
RightHandIndex2	0	0	0	0	0	0	1
RightHandIndex3	0	0	0	0	0	0	1
RightHandIndex4	0	0	0	0	0	0	1
RightHandThumb1	0	0	0	0	0	0	1
RightHandThumb2	0	0	0	0	0	0	1
RightHandThumb3	0	0	0	0	0	0	1
RightHandThumb4	0	0	0	0	0	0	1
LeftUpLeg	0	0	0	0	0	0	1
LeftLeg	0	0	0	0	0	0	1
LeftFoot	0	0	0	0	0	0	1
LeftToeBase	0	0	0	0	0	0	1
RightUpLeg	0	0	0	0	0	0	1
RightLeg	0	0	0	0	0	0	1
RightFoot	0	0	0	0	0	0	1
RightToeBase	0	0	0	0	0	0	1
[Hips]
11	1864.689819	931.3693848	-11.10961914	-12.49710846	81.21130371	-33.64074707	1.0
12	2060.315186	946.0673828	-13.06466675	-15.90689182	78.54846191	-36.5044136	1.0
13	2272.161133	948.595459	-11.48261166	1.403481364	77.35778809	-17.95450974	1.0
[Spine]
11	0	101.8159943	1.315000057	7.286071301	-18.30345726	8.710531235	1.0
12	0	101.8159943	1.315000057	6.515189171	-20.44925117	9.823190689	1.0
13	0	101.8159943	1.315000057	6.098183632	-20.60704041	7.444212914	1.0
[Spine1]
11	0	100.8349991	-10.00800037	2.971804142	-7.449667931	3.140748978	1.0
12	0	100.8349991	-10.00800037	2.728171587	-8.003631592	3.216176033	1.0
13	0	100.8349991	-10.00800037	2.388045073	-7.927599907	2.913056135	1.0
[Spine2]
11	0	91	-13.73399925	2.915967464	-7.43175602	3.22840023	1.0
12	0	91	-13.73399925	2.658333302	-7.984014988	3.322995424	1.0
13	0	91	-13.73399925	2.339106083	-7.89171505	3.051137924	1.0
[Neck]
11	0	166.7169952	-25.16200066	-0.5269463062	-4.093713284	-3.673146963	1.0
12	0	166.7169952	-25.16200066	0.6277154684	-3.150490761	-3.735799313	1.0
13	0	166.7169952	-25.16200066	1.346988201	-2.9210217	-3.917162418	1.0
[Head]
11	0	96.17900085	16.84999847	-30.05045891	-31.65345764	30.52895737	1.0
12	0	96.17900085	16.84999847	-27.16899109	-29.56193352	28.73321152	1.0
13	0	96.17900085	16.84999847	-24.89077568	-29.6549511	27.82691383	1.0
[LeftEye]
11	30.6760006	64.09500122	92.83599854	0	0	0	1.0
12	30.6760006	64.09500122	92.83599854	0	0	0	1.0
13	30.6760006	64.09500122	92.83599854	0	0	0	1.0
[RightEye]
11	-30.6760006	64.09500122	92.83499908	0	0	0	1.0
12	-30.6760006	64.09500122	92.83499908	0	0	0	1.0
13	-30.6760006	64.09500122	92.83499908	0	0	0	1.0
[LeftShoulder]
11	45.70400238	109.4599991	-26.28000069	3.390210867	-15.67804337	-9.980380058	1.0
12	45.70400238	109.4599991	-26.28000069	2.962139606	-14.16594124	-9.056494713	1.0
13	45.70400238	109.4599991	-26.28000069	2.766394377	-12.99472809	-9.169527054	1.0
[LeftArm]
11	105.923996	-5.24600029	-22.32099915	-16.06035233	-5.331934929	-36.00354767	1.0
12	105.923996	-5.24600029	-22.32099915	-26.56212425	2.586732864	-35.71683502	1.0
13	105.923996	-5.24600029	-22.32099915	-34.40008545	9.733581543	-38.56698227	1.0
[LeftForeArm]
11	278.414978	-0.0009999999311	0	1.525879998e-05	-115.4365997	-0.0002136230469	1.0
12	278.414978	-0.0009999999311	0	1.525878906e-05	-130.8999786	-0.0002288818359	1.0
13	278.414978	-0.0009999999311	0	1.525878906e-05	-139.8283386	-0.0001983642578	1.0
[LeftHand]
11	283.2879944	0	0	21.33621025	30.90914917	-7.317014217	1.0
12	283.2879944	0	0	31.2289753	14.27267551	1.706188083	1.0
13	283.2879944	0	0	39.91577148	-0.716116488	4.970853806	1.0
[LeftHandThumb1]
11	24.6609993	-15.75	26.8239994	0.2919089794	3.901257753	-2.306043625	1.0
12	24.6609993	-15.75	26.8239994	0.3413684666	4.012177944	-2.268103123	1.0
13	24.6609993	-15.75	26.8239994	0.4116903543	4.194776535	-2.191350222	1.0
[LeftHandThumb2]
11	32.29800034	-18.64699936	18.64699936	8.412820816	17.61912346	18.72379875	1.0
12	32.29800034	-18.64699936	18.64699936	8.440432549	17.72719002	18.75588989	1.0
13	32.29800034	-18.64699936	18.64699936	8.485731125	17.90376854	18.80849838	1.0
[LeftHandThumb3]
11	26.52600098	-15.31499958	15.31499958	-27.61255646	-19.68657303	21.51591301	1.0
12	26.52600098	-15.31499958	15.31499958	-27.5767765	-19.6128788	21.49928284	1.0
13	26.52600098	-15.31499958	15.31499958	-27.51832771	-19.49233818	21.47220993	1.0
[LeftHandThumb4]
11	19.54599953	-11.28499985	11.28499985	0	0	0	1.0
12	19.54599953	-11.28499985	11.28499985	0	0	0	1.0
13	19.54599953	-11.28499985	11.28499985	0	0	0	1.0
[LeftHandIndex1]
11	91.09299469	-5.170999527	22.60099792	-2.217404127	-2.644973755	-33.88879395	1.0
12	91.09299469	-5.170999527	22.60099792	-2.227927446	-2.639275551	-34.0015831	1.0
13	91.09299469	-5.170999527	22.60099792	-2.245843887	-2.638203144	-34.18577957	1.0
[LeftHandIndex2]
11	36.76399994	0	0	-0.3588481247	2.016001225	-20.18358994	1.0
12	36.76399994	0	0	-0.3629246354	2.027106762	-20.29948807	1.0
13	36.76399994	0	0	-0.3696607351	2.04517293	-20.4889698	1.0
[LeftHandIndex3]
11	28.83100128	0	0	-0.009345328435	0.3303489387	-3.239802122	1.0
12	28.83100128	0	0	-0.01001040451	0.3419731557	-3.353937149	1.0
13	28.83100128	0	0	-0.0111547336	0.3609628379	-3.540485859	1.0
[LeftHandIndex4]
11	23.92700005	0	0	0	0	0	1.0
12	23.92700005	0	0	0	0	0	1.0
13	23.92700005	0	0	0	0	0	1.0
[LeftHandMiddle1]
11	95.33399963	0	0	-3.123015642	-0.7005831599	-43.1444397	1.0
12	95.33399963	0	0	-3.136520863	-0.6963598728	-43.27842712	1.0
13	95.33399963	0	0	-3.158551693	-0.69896698	-43.49723434	1.0
[LeftHandMiddle2]
11	36.98199844	0	0	-1.608249426	4.022400856	-43.572052	1.0
12	36.98199844	0	0	-1.617844343	4.032418251	-43.70843124	1.0
13	36.98199844	0	0	-1.633532643	4.048739433	-43.93120575	1.0
[LeftHandMiddle3]
11	29.50900078	0	0	-0.000641096849	-0.08678342402	0.8506759405	1.0
12	29.50900078	0	0	-0.0004946943372	-0.0759909898	0.7449229956	1.0
13	29.50900078	0	0	-0.0002883126726	-0.05837524682	0.5720778704	1.0
[LeftHandMiddle4]
11	28.3390007	0	0	0	0	0	1.0
12	28.3390007	0	0	0	0	0	1.0
13	28.3390007	0	0	0	0	0	1.0
[LeftHandRing1]
11	91.04499817	-0.4390000105	-18.65100098	-3.391885042	3.406321764	-45.65575409	1.0
12	91.04499817	-0.4390000105	-18.65100098	-3.409253836	3.413618326	-45.825634	1.0
13	91.04499817	-0.4390000105	-18.65100098	-3.437709808	3.419680119	-46.10349274	1.0
[LeftHandRing2]
11	31.54000092	0	0	-3.220842838	5.212399006	-63.40362549	1.0
12	31.54000092	0	0	-3.236343145	5.220090866	-63.57436371	1.0
13	31.54000092	0	0	-3.261783361	5.232614517	-63.85338211	1.0
[LeftHandRing3]
11	29.37700081	0	0	-0.1010179892	1.081956744	-10.66807556	1.0
12	29.37700081	0	0	-0.104240492	1.098914385	-10.83724117	1.0
13	29.37700081	0	0	-0.1096089557	1.126586795	-11.11374474	1.0
[LeftHandRing4]
11	26.47500038	0	0	0	0	0	1.0
12	26.47500038	0	0	0	0	0	1.0
13	26.47500038	0	0	0	0	0	1.0
[LeftHandPinky1]
11	80.77799988	-4.887000084	-38.06099701	-5.057901859	4.738006115	-57.82243729	1.0
12	80.77799988	-4.887000084	-38.06099701	-5.077233315	4.742505074	-58.06602478	1.0
13	80.77799988	-4.887000084	-38.06099701	-5.111951351	4.742864609	-58.4642868	1.0
[LeftHandPinky2]
11	36	0	0	-4.993103981	5.765676022	-81.77346802	1.0
12	36	0	0	-5.017615795	5.769160748	-82.01748657	1.0
13	36	0	0	-5.057742596	5.774609566	-82.41627502	1.0
[LeftHandPinky3]
11	21.14200211	0	0	-0.8335279226	3.006505728	-30.9850235	1.0
12	21.14200211	0	0	-0.8462798595	3.02760601	-31.22723389	1.0
13	21.14200211	0	0	-0.8673046231	3.061981678	-31.62313843	1.0
[LeftHandPinky4]
11	19.75699997	0	0	0	0	0	1.0
12	19.75699997	0	0	0	0	0	1.0
13	19.75699997	0	0	0	0	0	1.0
[RightShoulder]
11	-45.70000076	109.4620056	-26.28000069	-1.127753735	-10.93362808	3.005958796	1.0
12	-45.70000076	109.4620056	-26.28000069	-1.148240685	-11.79166508	-2.309561968	1.0
13	-45.70000076	109.4620056	-26.28000069	-1.111874342	-10.93380928	-4.649088383	1.0
[RightArm]
11	-105.9280014	-5.248000145	-22.32099915	14.51696968	-29.46976852	49.36279297	1.0
12	-105.9280014	-5.248000145	-22.32099915	14.69375992	-37.30486298	50.81928253	1.0
13	-105.9280014	-5.248000145	-22.32099915	12.86606693	-40.00265884	52.50830841	1.0
[RightForeArm]
11	-278.414978	0	0	-1.463564513e-05	50.9408493	-2.574325435e-06	1.0
12	-278.414978	0	0	7.221038913e-07	56.44655609	-4.633748176e-06	1.0
13	-278.414978	0	0	-2.14055799e-05	58.97886276	-1.572517067e-05	1.0
[RightHand]
11	-283.2879944	0	0.0009999999311	31.41410637	26.57978821	-8.525240898	1.0
12	-283.2879944	0	0.0009999999311	31.28263664	23.35773087	-8.339224815	1.0
13	-283.2879944	0	0.0009999999311	34.03786469	19.18893814	-4.200158119	1.0
[RightHandPinky1]
11	-80.76699829	-4.885000229	-38.06000137	-2.332247496	-17.5590229	23.75694847	1.0
12	-80.76699829	-4.885000229	-38.06000137	-2.937876463	-15.23911476	34.03681183	1.0
13	-80.76699829	-4.885000229	-38.06000137	-3.589701653	-12.30140018	44.76478577	1.0
[RightHandPinky2]
11	-36	0	0.0009999999311	-1.593004465	-3.496675968	48.99495697	1.0
12	-36	0	0.0009999999311	-2.249373436	-3.972536802	59.04616547	1.0
13	-36	0	0.0009999999311	-3.015553713	-4.340355873	69.58745575	1.0
[RightHandPinky3]
11	-21.14200211	0	0	-0.003920747433	-0.1904907972	2.352521181	1.0
12	-21.14200211	0	0	-0.09532104433	-0.9357053041	11.63377666	1.0
13	-21.14200211	0	0	-0.3158361912	-1.682439089	21.26299477	1.0
[RightHandPinky4]
11	-19.75699997	0	0	0	0	0	1.0
12	-19.75699997	0	0	0	0	0	1.0
13	-19.75699997	0	0	0	0	0	1.0
[RightHandRing1]
11	-91.03599548	-0.4390000105	-18.65100098	-0.8699809909	-8.390468597	17.95397377	1.0
12	-91.03599548	-0.4390000105	-18.65100098	-1.471937299	-7.46035862	26.65413666	1.0
13	-91.03599548	-0.4390000105	-18.65100098	-2.173491001	-6.267659664	35.86273956	1.0
[RightHandRing2]
11	-31.54000092	0	0	-0.9295296073	-2.784829855	36.91063309	1.0
12	-31.54000092	0	0	-1.387099028	-3.306578159	45.50596619	1.0
13	-31.54000092	0	0	-1.950526118	-3.777541161	54.60687637	1.0
[RightHandRing3]
11	-29.37700081	0	0	-0.002361048246	0.1480219364	-1.827827096	1.0
12	-29.37700081	0	0	-0.01231838483	-0.3378398716	4.174880028	1.0
13	-29.37700081	0	0	-0.07339118421	-0.8220105767	10.20331383	1.0
[RightHandRing4]
11	-26.47500038	0	0	0	0	0	1.0
12	-26.47500038	0	0	0	0	0	1.0
13	-26.47500038	0	0	0	0	0	1.0
[RightHandMiddle1]
11	-95.32500458	0	0	-0.9329251051	-0.03457871079	18.85648346	1.0
12	-95.32500458	0	0	-1.469622016	0.2970839143	26.71597099	1.0
13	-95.32500458	0	0	-2.101863623	0.6570525169	35.08201599	1.0
[RightHandMiddle2]
11	-36.98199844	0	0	-0.2776905298	-1.580907583	19.9227829	1.0
12	-36.98199844	0	0	-0.5381108522	-2.168397903	27.8712616	1.0
13	-36.98199844	0	0	-0.9021106362	-2.747982979	36.34259033	1.0
[RightHandMiddle3]
11	-29.50900078	0	0	-0.03569926322	0.5724603534	-7.111421108	1.0
12	-29.50900078	0	0	-0.005254344549	0.2185545713	-2.724564075	1.0
13	-29.50900078	0	0	-0.002310026204	-0.1484760046	1.808686256	1.0
[RightHandMiddle4]
11	-28.3390007	0	0.0009999999311	0	0	0	1.0
12	-28.3390007	0	0.0009999999311	0	0	0	1.0
13	-28.3390007	0	0.0009999999311	0	0	0	1.0
[RightHandIndex1]
11	-91.08300018	-5.167999744	22.60099792	-0.4710972011	4.650061131	11.66338825	1.0
12	-91.08300018	-5.167999744	22.60099792	-0.9163309336	4.466162205	19.05086136	1.0
13	-91.08300018	-5.167999744	22.60099792	-1.458704948	4.189924717	26.92975616	1.0
[RightHandIndex2]
11	-36.76399994	0	0	-0.08169351518	-0.8668795228	10.76701069	1.0
12	-36.76399994	0	0	-0.1803399622	-1.280979633	16.02647972	1.0
13	-36.76399994	0	0	-0.3196097314	-1.692085981	21.39102364	1.0
[RightHandIndex3]
11	-28.83100128	0	0	-0.01390198804	0.3589226902	-4.435823917	1.0
12	-28.83100128	0	0	-0.0001475091121	-0.0363478139	0.4486667514	1.0
13	-28.83100128	0	0	-0.02034041658	-0.4341280162	5.36819458	1.0
[RightHandIndex4]
11	-23.92700005	0	0	0	0	0	1.0
12	-23.92700005	0	0	0	0	0	1.0
13	-23.92700005	0	0	0	0	0	1.0
[RightHandThumb1]
11	-24.64799881	-15.72700024	26.82600021	-4.403441429	7.906675816	5.825474739	1.0
12	-24.64799881	-15.72700024	26.82600021	-3.62703824	5.614833355	5.207674503	1.0
13	-24.64799881	-15.72700024	26.82600021	-2.838920116	3.362322569	4.570080757	1.0
[RightHandThumb2]
11	-32.29800034	-18.64699936	18.64699936	7.44877243	-9.948474884	-17.37469292	1.0
12	-32.29800034	-18.64699936	18.64699936	7.903952122	-12.11725044	-17.93914986	1.0
13	-32.29800034	-18.64699936	18.64699936	8.378540039	-14.25237751	-18.51834106	1.0
[RightHandThumb3]
11	-26.52600098	-15.31399918	15.31399918	-27.08900642	20.45414925	-22.36344337	1.0
12	-26.52600098	-15.31399918	15.31399918	-26.36466599	18.99154663	-22.00793839	1.0
13	-26.52600098	-15.31399918	15.31399918	-25.6653862	17.54462242	-21.67918205	1.0
[RightHandThumb4]
11	-19.54599953	-11.28499985	11.28499985	0	0	0	1.0
12	-19.54599953	-11.28499985	11.28499985	0	0	0	1.0
13	-19.54599953	-11.28499985	11.28499985	0	0	0	1.0
[LeftUpLeg]
11	82.07800293	-67.51699829	-15.99599934	4.322217464	8.857272148	-7.586992741	1.0
12	82.07800293	-67.51699829	-15.99599934	10.38752079	11.81270313	-6.414244175	1.0
13	82.07800293	-67.51699829	-15.99599934	12.01814461	18.78847122	-7.428841114	1.0
[LeftLeg]
11	0	-443.7049866	2.845999956	6.498623371	-4.545452118	5.611896515	1.0
12	0	-443.7049866	2.845999956	10.42945766	-7.027014732	7.354180336	1.0
13	0	-443.7049866	2.845999956	32.02206039	-11.37303829	0.1414364427	1.0
[LeftFoot]
11	0	-444.2789917	-29.8219986	-11.66894817	-2.651108503	8.014181137	1.0
12	0	-444.2789917	-29.8219986	11.87554932	-2.003653288	-10.36393547	1.0
13	0	-444.2789917	-29.8219986	6.864172935	-0.3305785656	-13.20823193	1.0
[LeftToeBase]
11	0	-87.28699493	107.1060028	-27.40350342	1.358973986e-05	-1.389473982e-05	1.0
12	0	-87.28699493	107.1060028	-15.42826366	0.3820264637	1.479697227	1.0
13	0	-87.28699493	107.1060028	-7.683483124	-6.784492143e-06	3.078948794e-05	1.0
[RightUpLeg]
11	-82.07800293	-67.51699829	-15.99599934	-82.32470703	2.669196844	5.598405361	1.0
12	-82.07800293	-67.51699829	-15.99599934	-80.93571472	8.17305088	8.692023277	1.0
13	-82.07800293	-67.51699829	-15.99599934	-71.70629883	8.658630371	9.185375214	1.0
[RightLeg]
11	0	-443.7049866	2.861999989	91.29658508	-2.470941544	1.61705184	1.0
12	0	-443.7049866	2.861999989	61.85359955	0.5945116282	5.130458355	1.0
13	0	-443.7049866	2.861999989	34.17978668	7.066506863	6.499566078	1.0
[RightFoot]
11	0	-444.2770081	-29.83799934	-17.84113121	-0.4841476977	-6.214727402	1.0
12	0	-444.2770081	-29.83799934	-13.28431225	-0.7674356699	5.066090107	1.0
13	0	-444.2770081	-29.83799934	-11.34922314	-0.8730487823	19.68924904	1.0
[RightToeBase]
11	0	-87.28699493	107.1060028	-5.327950954	-2.46957261e-05	2.57497959e-06	1.0
12	0	-87.28699493	107.1060028	-6.815807819	4.565123163e-06	-1.029714713e-05	1.0
13	0	-87.28699493	107.1060028	-7.059531689	1.777405487e-05	-2.292186537e-06	1.0
[EndOfFile]
